<svg width="16" height="16" viewBox="0 0 16 16" fill="none" xmlns="http://www.w3.org/2000/svg">
<path d="M15.5 13L0.5 13" stroke="#53E2DA"/>
<path d="M1 6L1.20588 6.38095L1.43464 6.7619L1.64052 7.12554L1.84641 7.48918L2.05229 7.8355L2.28105 8.1645L2.48693 8.47619L2.69281 8.77056L2.89869 9.0303L3.12745 9.25541L3.33333 9.4632L3.53922 9.63636L3.76797 9.79221L3.97386 9.8961L4.17974 9.96537L4.38562 10H4.61438L4.82026 9.96537L5.02614 9.8961L5.23203 9.79221L5.46078 9.63636L5.66667 9.4632L5.87255 9.25541L6.10131 9.0303L6.30719 8.77056L6.51307 8.47619L6.71895 8.1645L6.94771 7.8355L7.15359 7.48918L7.35948 7.12554L7.56536 6.7619L7.79412 6.38095L8 6L8.20588 5.61905L8.43464 5.2381L8.64052 4.87446L8.8464 4.51082L9.05229 4.1645L9.28105 3.8355L9.48693 3.52381L9.69281 3.22944L9.89869 2.9697L10.1275 2.74459L10.3333 2.5368L10.5392 2.36364L10.768 2.20779L10.9739 2.1039L11.1797 2.03463L11.3856 2H11.6144L11.8203 2.03463L12.0261 2.1039L12.232 2.20779L12.4608 2.36364L12.6667 2.5368L12.8725 2.74459L13.1013 2.9697L13.3072 3.22944L13.5131 3.52381L13.719 3.8355L13.9477 4.1645L14.1536 4.51082L14.3595 4.87446L14.5654 5.2381L14.7941 5.61905L15 6" stroke="#53E2DA"/>
</svg>
