<svg width="16" height="16" viewBox="0 0 16 16" fill="none" xmlns="http://www.w3.org/2000/svg">
<path d="M2 1V15" stroke="#C5C5C5"/>
<path d="M14.8536 5.35355C15.0488 5.15829 15.0488 4.84171 14.8536 4.64645L11.6716 1.46447C11.4763 1.2692 11.1597 1.2692 10.9645 1.46447C10.7692 1.65973 10.7692 1.97631 10.9645 2.17157L13.7929 5L10.9645 7.82843C10.7692 8.02369 10.7692 8.34027 10.9645 8.53553C11.1597 8.7308 11.4763 8.7308 11.6716 8.53553L14.8536 5.35355ZM3 5.5L14.5 5.5V4.5L3 4.5V5.5Z" fill="#C5C5C5"/>
<path d="M3.14645 11.6464C2.95118 11.8417 2.95118 12.1583 3.14645 12.3536L6.32843 15.5355C6.52369 15.7308 6.84027 15.7308 7.03553 15.5355C7.2308 15.3403 7.2308 15.0237 7.03553 14.8284L4.20711 12L7.03553 9.17157C7.2308 8.97631 7.2308 8.65973 7.03553 8.46447C6.84027 8.2692 6.52369 8.2692 6.32843 8.46447L3.14645 11.6464ZM14 11.5L3.5 11.5V12.5L14 12.5V11.5Z" fill="#C5C5C5"/>
</svg>
