<svg width="48" height="48" viewBox="0 0 48 48" fill="none" xmlns="http://www.w3.org/2000/svg">
<path d="M17 45V35L10.3194 30.4744" stroke="#C5C5C5" stroke-width="3"/>
<path d="M23.7259 22.8167L9.70332 14.0219" stroke="#C5C5C5" stroke-width="3"/>
<path d="M24.0038 44.6751V8.27618" stroke="#C5C5C5" stroke-width="3"/>
<path d="M31 44.5V23.5L41.8607 16.8948" stroke="#C5C5C5" stroke-width="3"/>
<path d="M6 44.5H42" stroke="#C5C5C5" stroke-width="3"/>
<path d="M10.0578 20.1C13.2202 20.1 15.7838 17.5167 15.7838 14.3301C15.7838 11.1435 13.2202 8.56024 10.0578 8.56024C6.89548 8.56024 4.33188 11.1435 4.33188 14.3301C4.33188 17.5167 6.89548 20.1 10.0578 20.1Z" fill="#C5C5C5"/>
<path d="M24.0352 12.5397C27.1976 12.5397 29.7612 9.95646 29.7612 6.76986C29.7612 3.58326 27.1976 1 24.0352 1C20.8729 1 18.3093 3.58326 18.3093 6.76986C18.3093 9.95646 20.8729 12.5397 24.0352 12.5397Z" fill="#C5C5C5"/>
<path d="M42.2741 22.7249C45.4365 22.7249 48.0001 20.1416 48.0001 16.955C48.0001 13.7684 45.4365 11.1852 42.2741 11.1852C39.1117 11.1852 36.5481 13.7684 36.5481 16.955C36.5481 20.1416 39.1117 22.7249 42.2741 22.7249Z" fill="#C5C5C5"/>
<path d="M5.72597 33.9686C8.88833 33.9686 11.4519 31.3853 11.4519 28.1987C11.4519 25.0121 8.88833 22.4289 5.72597 22.4289C2.5636 22.4289 0 25.0121 0 28.1987C0 31.3853 2.5636 33.9686 5.72597 33.9686Z" fill="#C5C5C5"/>
</svg>
