<svg width="16" height="16" viewBox="0 0 16 16" fill="none" xmlns="http://www.w3.org/2000/svg">
<path d="M2.6479 3.99642C4.76627 3.95661 5.60259 3.58976 6.20507 3.15567C6.31697 3.07504 6.40284 3.008 6.47707 2.95005C6.6195 2.83883 6.71903 2.76112 6.87731 2.68522C7.08258 2.58679 7.39421 2.5 8 2.5C8.61602 2.5 8.92333 2.58738 9.11909 2.68334C9.27021 2.75741 9.36093 2.83152 9.49459 2.9407C9.56571 2.99879 9.64898 3.06681 9.75997 3.15003C10.3489 3.59161 11.177 3.95807 13.3252 3.99665C13.3626 4.16228 13.4051 4.38494 13.4388 4.65557C13.5193 5.3015 13.5493 6.21638 13.3442 7.28033C12.9468 9.34113 11.6563 12.0192 8.00173 14.4051C4.39424 12.0197 3.0931 9.34061 2.67549 7.27588C2.45998 6.21031 2.47709 5.29421 2.54721 4.64766C2.57611 4.38126 2.61393 4.16131 2.6479 3.99642Z" stroke="#C5C5C5"/>
<path d="M10.5 3.5L8 2.5V14L9.5 13L11 11.5L13 8.5L13.5 6L13 4L10.5 3.5Z" fill="#C5C5C5"/>
</svg>
