<svg width="16" height="16" viewBox="0 0 16 16" fill="none" xmlns="http://www.w3.org/2000/svg">
<path d="M2 1V15" stroke="#424242"/>
<path d="M14.8536 5.35355C15.0488 5.15829 15.0488 4.84171 14.8536 4.64645L11.6716 1.46447C11.4763 1.2692 11.1597 1.2692 10.9645 1.46447C10.7692 1.65973 10.7692 1.97631 10.9645 2.17157L13.7929 5L10.9645 7.82843C10.7692 8.02369 10.7692 8.34027 10.9645 8.53553C11.1597 8.7308 11.4763 8.7308 11.6716 8.53553L14.8536 5.35355ZM3 5.5L14.5 5.5V4.5L3 4.5V5.5Z" fill="#424242"/>
<path d="M3.14645 10.6464C2.95118 10.8417 2.95118 11.1583 3.14645 11.3536L6.32843 14.5355C6.52369 14.7308 6.84027 14.7308 7.03553 14.5355C7.2308 14.3403 7.2308 14.0237 7.03553 13.8284L4.20711 11L7.03553 8.17157C7.2308 7.97631 7.2308 7.65973 7.03553 7.46447C6.84027 7.2692 6.52369 7.2692 6.32843 7.46447L3.14645 10.6464ZM15 10.5L3.5 10.5V11.5L15 11.5V10.5Z" fill="#424242"/>
</svg>
