<svg width="16" height="16" viewBox="0 0 16 16" fill="none" xmlns="http://www.w3.org/2000/svg">
<path d="M1.5 1V15" stroke="#424242"/>
<path d="M14.8536 5.85355C15.0488 5.65829 15.0488 5.34171 14.8536 5.14645L11.6716 1.96447C11.4763 1.7692 11.1597 1.7692 10.9645 1.96447C10.7692 2.15973 10.7692 2.47631 10.9645 2.67157L13.7929 5.5L10.9645 8.32843C10.7692 8.52369 10.7692 8.84027 10.9645 9.03553C11.1597 9.2308 11.4763 9.2308 11.6716 9.03553L14.8536 5.85355ZM3 6L14.5 6V5L3 5V6Z" fill="#424242"/>
<path d="M3.14645 10.1464C2.95118 10.3417 2.95118 10.6583 3.14645 10.8536L6.32843 14.0355C6.52369 14.2308 6.84027 14.2308 7.03553 14.0355C7.2308 13.8403 7.2308 13.5237 7.03553 13.3284L4.20711 10.5L7.03553 7.67157C7.2308 7.47631 7.2308 7.15973 7.03553 6.96447C6.84027 6.7692 6.52369 6.7692 6.32843 6.96447L3.14645 10.1464ZM15 10H3.5V11H15V10Z" fill="#424242"/>
</svg>
