<svg width="16" height="16" viewBox="0 0 16 16" fill="none" xmlns="http://www.w3.org/2000/svg">
<rect x="8" y="10" width="6" height="2" fill="#424242"/>
<mask id="mask0" mask-type="alpha" maskUnits="userSpaceOnUse" x="0" y="0" width="16" height="16">
<path d="M16 16H0V0H16V9.5H12.5H11.5H10.5H9.5H7.5V12.5H16V16Z" fill="#C4C4C4"/>
</mask>
<g mask="url(#mask0)">
<path d="M1.6479 3.99642C3.76627 3.95661 4.60259 3.58976 5.20507 3.15567C5.31697 3.07504 5.40284 3.008 5.47707 2.95005C5.6195 2.83883 5.71903 2.76112 5.87731 2.68522C6.08258 2.58679 6.39421 2.5 7 2.5C7.61602 2.5 7.92333 2.58738 8.11909 2.68334C8.27021 2.75741 8.36093 2.83152 8.49459 2.9407C8.56571 2.99879 8.64898 3.06681 8.75997 3.15003C9.34888 3.59161 10.177 3.95807 12.3252 3.99665C12.3626 4.16228 12.4051 4.38494 12.4388 4.65557C12.5193 5.3015 12.5493 6.21638 12.3442 7.28033C11.9468 9.34113 10.6563 12.0192 7.00173 14.4051C3.39424 12.0197 2.0931 9.34061 1.67549 7.27588C1.45998 6.21031 1.47709 5.29421 1.54721 4.64766C1.57611 4.38126 1.61393 4.16131 1.6479 3.99642Z" stroke="#424242"/>
<path d="M9.5 3.5L7 2.5V14L8.5 13L10 11.5L12 8.5L12.5 6L12 4L9.5 3.5Z" fill="#424242"/>
</g>
</svg>
